<svg xmlns="http://www.w3.org/2000/svg" viewBox="0 0 356 470"><defs><style>.cls-1{fill:#fff;}</style></defs><title>Ativo 8</title><g id="Camada_2" data-name="Camada 2"><g id="Camada_3" data-name="Camada 3"><path class="cls-1" d="M254.83,54.17H101.17A10.17,10.17,0,0,1,91,44h0A44,44,0,0,1,135,0h86a44,44,0,0,1,44,44h0A10.17,10.17,0,0,1,254.83,54.17Z"/><path class="cls-1" d="M228.67,470H127.33A36.33,36.33,0,0,1,91,433.67V105.5A38.5,38.5,0,0,1,129.5,67h97A38.5,38.5,0,0,1,265,105.5V230.67a13.67,13.67,0,0,1-13.67,13.67h-16A57.33,57.33,0,0,0,178,301.67v99a4.33,4.33,0,0,0,4.33,4.33h12a4.33,4.33,0,0,0,4.33-4.33V297.83a13.5,13.5,0,0,1,13.5-13.5h39.75A13.08,13.08,0,0,1,265,297.42V433.67A36.33,36.33,0,0,1,228.67,470Z"/><path class="cls-1" d="M14.67,424.33h0A14.67,14.67,0,0,1,0,409.67v-156H63.33V124.25A40.58,40.58,0,0,0,22.75,83.67h0a9.08,9.08,0,0,0-9.08,9.08V231.67H0v-139A22.33,22.33,0,0,1,22.33,70.33h0A55.67,55.67,0,0,1,78,126V361A63.33,63.33,0,0,1,14.67,424.33Z"/><path class="cls-1" d="M341.33,424.33h0A14.67,14.67,0,0,0,356,409.67v-156H292.67V124.25a40.58,40.58,0,0,1,40.58-40.58h0a9.08,9.08,0,0,1,9.08,9.08V231.67H356v-139a22.33,22.33,0,0,0-22.33-22.33h0A55.67,55.67,0,0,0,278,126V361A63.33,63.33,0,0,0,341.33,424.33Z"/></g></g></svg>