<svg xmlns="http://www.w3.org/2000/svg" viewBox="0 0 387.16 594.78"><defs><style>.cls-1{fill:#fff;}</style></defs><title>Ativo 2</title><g id="Camada_2" data-name="Camada 2"><g id="Camada_3" data-name="Camada 3"><path d="M310.31,16.5h-34A48.4,48.4,0,0,0,239.91,0H146.7a48.4,48.4,0,0,0-36.44,16.5H76.85A76.85,76.85,0,0,0,0,93.35V594.78H387.16V93.35A76.85,76.85,0,0,0,310.31,16.5Z"/><path class="cls-1" d="M270.41,67.06H116.75a10.17,10.17,0,0,1-10.17-10.17h0a44,44,0,0,1,44-44h86a44,44,0,0,1,44,44h0A10.17,10.17,0,0,1,270.41,67.06Z"/><path class="cls-1" d="M244.25,482.89H142.91a36.33,36.33,0,0,1-36.33-36.33V118.39a38.5,38.5,0,0,1,38.5-38.5h97a38.5,38.5,0,0,1,38.5,38.5V243.56a13.67,13.67,0,0,1-13.67,13.67h-16a57.33,57.33,0,0,0-57.33,57.33v99a4.33,4.33,0,0,0,4.33,4.33h12a4.33,4.33,0,0,0,4.33-4.33V310.73a13.5,13.5,0,0,1,13.5-13.5H267.5a13.08,13.08,0,0,1,13.08,13.08V446.56A36.33,36.33,0,0,1,244.25,482.89Z"/><path class="cls-1" d="M30.25,437.23h0a14.67,14.67,0,0,1-14.67-14.67v-156H78.91V137.14A40.58,40.58,0,0,0,38.33,96.56h0a9.08,9.08,0,0,0-9.08,9.08V244.56H15.58v-139A22.33,22.33,0,0,1,37.91,83.23h0a55.67,55.67,0,0,1,55.67,55.67v235A63.33,63.33,0,0,1,30.25,437.23Z"/><path class="cls-1" d="M356.91,437.23h0a14.67,14.67,0,0,0,14.67-14.67v-156H308.25V137.14a40.58,40.58,0,0,1,40.58-40.58h0a9.08,9.08,0,0,1,9.08,9.08V244.56h13.67v-139a22.33,22.33,0,0,0-22.33-22.33h0a55.67,55.67,0,0,0-55.67,55.67v235A63.33,63.33,0,0,0,356.91,437.23Z"/><path class="cls-1" d="M123.36,505.94h-8.51l-28.55,69.4H101L107.28,557H131.1L137,575.34h14.75Zm-12.1,39.33,7.57-20.42,7.94,20.42Z"/><polygon class="cls-1" points="157.77 505.94 172.14 505.94 199.37 553.21 199.37 505.94 213.74 505.94 213.74 575.34 199.37 575.34 172.14 528.26 172.14 575.34 157.77 575.34 157.77 505.94"/><polygon class="cls-1" points="225.65 505.94 262.52 505.94 262.52 519.56 238.69 519.56 238.69 533.93 261.38 533.93 261.38 547.54 238.69 547.54 238.69 561.91 262.52 561.91 262.52 575.34 225.65 575.34 225.65 505.94"/><polygon class="cls-1" points="320 505.94 333.04 505.94 333.04 533.93 356.11 533.93 356.11 505.94 369.91 505.94 369.91 575.34 356.11 575.34 356.11 547.54 333.04 547.54 333.04 575.34 320 575.34 320 505.94"/><path class="cls-1" d="M86.28,539.6H42.81v11.72h27a22.31,22.31,0,1,1-1.47-24.2h15.2a35.38,35.38,0,0,0-32.57-21.18c-19.54,0-35.36,15.53-35.36,34.69s15.83,34.7,35.36,34.7,35.35-15.54,35.35-34.7C86.29,540.3,86.29,539.94,86.28,539.6Z"/><path class="cls-1" d="M304.66,538.95a49.12,49.12,0,0,0-13.55-6.8c-1.75-.61-3.18-1.15-3.18-1.15a6.71,6.71,0,1,1,9.2-6.24h12.64A19.76,19.76,0,1,0,275.48,539c4,4.09,11.75,6.18,11.9,6.23l5.41,1.57a8.7,8.7,0,1,1-11.37,8.27h-13.6c.26,11.22,10.15,20.24,22.3,20.24,12.32,0,22.32-9.27,22.32-20.7A20.07,20.07,0,0,0,304.66,538.95Z"/></g></g></svg>