<svg xmlns="http://www.w3.org/2000/svg" viewBox="0 0 356 562.45"><defs><style>.cls-1{fill:#df2c62;}.cls-2{fill:#42dca3;}.cls-3{fill:#fff;}</style></defs><title>Ativo 4</title><g id="Camada_2" data-name="Camada 2"><g id="Camada_3" data-name="Camada 3"><path class="cls-1" d="M254.83,54.17H101.17A10.17,10.17,0,0,1,91,44h0A44,44,0,0,1,135,0h86a44,44,0,0,1,44,44h0A10.17,10.17,0,0,1,254.83,54.17Z"/><path class="cls-2" d="M228.67,470H127.33A36.33,36.33,0,0,1,91,433.67V105.5A38.5,38.5,0,0,1,129.5,67h97A38.5,38.5,0,0,1,265,105.5V230.67a13.67,13.67,0,0,1-13.67,13.67h-16A57.33,57.33,0,0,0,178,301.67v99a4.33,4.33,0,0,0,4.33,4.33h12a4.33,4.33,0,0,0,4.33-4.33V297.83a13.5,13.5,0,0,1,13.5-13.5h39.75A13.08,13.08,0,0,1,265,297.42V433.67A36.33,36.33,0,0,1,228.67,470Z"/><path class="cls-2" d="M14.67,424.33h0A14.67,14.67,0,0,1,0,409.67v-156H63.33V124.25A40.58,40.58,0,0,0,22.75,83.67h0a9.08,9.08,0,0,0-9.08,9.08V231.67H0v-139A22.33,22.33,0,0,1,22.33,70.33h0A55.67,55.67,0,0,1,78,126V361A63.33,63.33,0,0,1,14.67,424.33Z"/><path class="cls-2" d="M341.33,424.33h0A14.67,14.67,0,0,0,356,409.67v-156H292.67V124.25a40.58,40.58,0,0,1,40.58-40.58h0a9.08,9.08,0,0,1,9.08,9.08V231.67H356v-139a22.33,22.33,0,0,0-22.33-22.33h0A55.67,55.67,0,0,0,278,126V361A63.33,63.33,0,0,0,341.33,424.33Z"/><path class="cls-3" d="M107.77,493H99.27l-28.55,69.4H85.46L91.7,544.1h23.82l5.87,18.34h14.75Zm-12.1,39.33L103.24,512l7.94,20.42Z"/><polygon class="cls-3" points="142.19 493.05 156.56 493.05 183.78 540.32 183.78 493.05 198.15 493.05 198.15 562.44 183.78 562.44 156.56 515.36 156.56 562.44 142.19 562.44 142.19 493.05"/><polygon class="cls-3" points="210.07 493.05 246.94 493.05 246.94 506.66 223.11 506.66 223.11 521.03 245.8 521.03 245.8 534.65 223.11 534.65 223.11 549.02 246.94 549.02 246.94 562.44 210.07 562.44 210.07 493.05"/><polygon class="cls-3" points="304.42 493.05 317.46 493.05 317.46 521.03 340.53 521.03 340.53 493.05 354.33 493.05 354.33 562.44 340.53 562.44 340.53 534.65 317.46 534.65 317.46 562.44 304.42 562.44 304.42 493.05"/><path class="cls-3" d="M70.7,526.71H27.23v11.72h27a22.31,22.31,0,1,1-1.47-24.2h15.2A35.38,35.38,0,0,0,35.36,493C15.83,493,0,508.58,0,527.74s15.83,34.7,35.36,34.7,35.35-15.54,35.35-34.7C70.71,527.4,70.71,527,70.7,526.71Z"/><path class="cls-3" d="M289.07,526.05a49.12,49.12,0,0,0-13.55-6.8c-1.75-.61-3.18-1.15-3.18-1.15a6.71,6.71,0,1,1,9.2-6.24h12.64a19.76,19.76,0,1,0-34.28,14.28c4,4.09,11.75,6.18,11.9,6.23l5.41,1.57a8.7,8.7,0,1,1-11.37,8.27h-13.6c.26,11.22,10.15,20.24,22.3,20.24,12.32,0,22.32-9.27,22.32-20.7A20.07,20.07,0,0,0,289.07,526.05Z"/></g></g></svg>