<?xml version="1.0" encoding="utf-8"?>
<!-- Generator: Adobe Illustrator 21.1.0, SVG Export Plug-In . SVG Version: 6.00 Build 0)  -->
<svg version="1.1" xmlns="http://www.w3.org/2000/svg" xmlns:xlink="http://www.w3.org/1999/xlink" x="0px" y="0px"
	 viewBox="0 0 1080 1920" style="enable-background:new 0 0 1080 1920;" xml:space="preserve">
<style type="text/css">
	.st0{display:none;}
	.st1{fill:#DF2C62;}
	.st2{fill:#42DCA3;}
	.st3{fill:#FFFFFF;}
</style>
<g id="Camada_1" class="st0">
	
		<image style="display:inline;overflow:visible;" width="600" height="600" xlink:href="477B6A17.jpg"  transform="matrix(1 0 0 1 241 659)">
	</image>
</g>
<g id="Camada_3">
	<g>
		<path d="M370.6,63.4h-34c-8.9-10.1-21.9-16.5-36.4-16.5H207c-14.5,0-27.5,6.4-36.4,16.5h-33.4c-42.4,0-76.9,34.4-76.9,76.9v501.4
			h387.2V140.3C447.4,97.8,413,63.4,370.6,63.4z"/>
		<g>
			<g>
				<path class="st1" d="M330.7,114H177c-5.6,0-10.2-4.6-10.2-10.2v0c0-24.3,19.7-44,44-44h86c24.3,0,44,19.7,44,44v0
					C340.8,109.5,336.3,114,330.7,114z"/>
			</g>
			<g>
				<path class="st2" d="M304.5,529.8H203.2c-20.1,0-36.3-16.3-36.3-36.3V165.3c0-21.3,17.2-38.5,38.5-38.5h97
					c21.3,0,38.5,17.2,38.5,38.5v125.2c0,7.5-6.1,13.7-13.7,13.7h-16c-31.7,0-57.3,25.7-57.3,57.3v99c0,2.4,1.9,4.3,4.3,4.3h12
					c2.4,0,4.3-1.9,4.3-4.3V357.7c0-7.5,6-13.5,13.5-13.5h39.8c7.2,0,13.1,5.9,13.1,13.1v136.3C340.8,513.6,324.6,529.8,304.5,529.8
					z"/>
			</g>
			<g>
				<path class="st2" d="M90.5,484.2L90.5,484.2c-8.1,0-14.7-6.6-14.7-14.7v-156h63.3l0-129.4c0-22.4-18.2-40.6-40.6-40.6h0
					c-5,0-9.1,4.1-9.1,9.1l0,138.9H75.8v-139c0-12.3,10-22.3,22.3-22.3h0c30.7,0,55.7,24.9,55.7,55.7v235
					C153.8,455.8,125.5,484.2,90.5,484.2z"/>
			</g>
			<g>
				<path class="st2" d="M417.2,484.2L417.2,484.2c8.1,0,14.7-6.6,14.7-14.7v-156h-63.3l0-129.4c0-22.4,18.2-40.6,40.6-40.6h0
					c5,0,9.1,4.1,9.1,9.1l0,138.9h13.7v-139c0-12.3-10-22.3-22.3-22.3h0c-30.7,0-55.7,24.9-55.7,55.7v235
					C353.8,455.8,382.2,484.2,417.2,484.2z"/>
			</g>
		</g>
		<g>
			<path class="st3" d="M183.6,552.9h-8.5l-28.6,69.4h14.7l6.2-18.3h23.8l5.9,18.3H212L183.6,552.9z M171.5,592.2l7.6-20.4l7.9,20.4
				H171.5z"/>
			<polygon class="st3" points="218,552.9 232.4,552.9 259.6,600.2 259.6,552.9 274,552.9 274,622.3 259.6,622.3 232.4,575.2 
				232.4,622.3 218,622.3 			"/>
			<polygon class="st3" points="285.9,552.9 322.8,552.9 322.8,566.5 299,566.5 299,580.9 321.6,580.9 321.6,594.5 299,594.5 
				299,608.9 322.8,608.9 322.8,622.3 285.9,622.3 			"/>
			<polygon class="st3" points="380.3,552.9 393.3,552.9 393.3,580.9 416.4,580.9 416.4,552.9 430.2,552.9 430.2,622.3 416.4,622.3 
				416.4,594.5 393.3,594.5 393.3,622.3 380.3,622.3 			"/>
			<path class="st3" d="M146.5,586.5h-43.5v11.7h27c-3.8,6.8-11.1,11.3-19.4,11.3c-12.3,0-22.3-10-22.3-22.3
				c0-12.3,10-22.3,22.3-22.3c7.4,0,13.9,3.6,17.9,9.1h15.2c-5.4-12.4-17.9-21.2-32.6-21.2c-19.5,0-35.4,15.5-35.4,34.7
				s15.8,34.7,35.4,34.7c19.5,0,35.4-15.5,35.4-34.7C146.6,587.2,146.6,586.9,146.5,586.5z"/>
			<path class="st3" d="M364.9,585.9c-4.9-3.7-10.5-5.7-13.6-6.8c-1.7-0.6-3.2-1.2-3.2-1.2c-2.5-1-4.2-3.4-4.2-6.2
				c0-3.7,3-6.7,6.7-6.7s6.7,3,6.7,6.7H370c-0.5-10.5-9.1-18.8-19.7-18.8c-10.9,0-19.8,8.8-19.8,19.8c0,5.1,2,9.8,5.2,13.3
				c4,4.1,11.8,6.2,11.9,6.2c0.1,0,5.4,1.6,5.4,1.6c3.5,1.1,6,4.4,6,8.3c0,4.8-3.9,8.7-8.7,8.7s-8.7-3.9-8.7-8.7h-13.6
				c0.3,11.2,10.2,20.2,22.3,20.2c12.3,0,22.3-9.3,22.3-20.7C372.7,595.3,369.7,589.7,364.9,585.9z"/>
		</g>
	</g>
	<g>
		<path d="M916.6,63.4h-34c-8.9-10.1-21.9-16.5-36.4-16.5H753c-14.5,0-27.5,6.4-36.4,16.5h-33.4c-42.4,0-76.9,34.4-76.9,76.9v501.4
			h387.2V140.3C993.4,97.8,959,63.4,916.6,63.4z"/>
		<g>
			<g>
				<path class="st3" d="M876.7,114H723c-5.6,0-10.2-4.6-10.2-10.2v0c0-24.3,19.7-44,44-44h86c24.3,0,44,19.7,44,44v0
					C886.8,109.5,882.3,114,876.7,114z"/>
			</g>
			<g>
				<path class="st3" d="M850.5,529.8H749.2c-20.1,0-36.3-16.3-36.3-36.3V165.3c0-21.3,17.2-38.5,38.5-38.5h97
					c21.3,0,38.5,17.2,38.5,38.5v125.2c0,7.5-6.1,13.7-13.7,13.7h-16c-31.7,0-57.3,25.7-57.3,57.3v99c0,2.4,1.9,4.3,4.3,4.3h12
					c2.4,0,4.3-1.9,4.3-4.3V357.7c0-7.5,6-13.5,13.5-13.5h39.8c7.2,0,13.1,5.9,13.1,13.1v136.3C886.8,513.6,870.6,529.8,850.5,529.8
					z"/>
			</g>
			<g>
				<path class="st3" d="M636.5,484.2L636.5,484.2c-8.1,0-14.7-6.6-14.7-14.7v-156h63.3l0-129.4c0-22.4-18.2-40.6-40.6-40.6h0
					c-5,0-9.1,4.1-9.1,9.1l0,138.9h-13.7v-139c0-12.3,10-22.3,22.3-22.3h0c30.7,0,55.7,24.9,55.7,55.7v235
					C699.8,455.8,671.5,484.2,636.5,484.2z"/>
			</g>
			<g>
				<path class="st3" d="M963.2,484.2L963.2,484.2c8.1,0,14.7-6.6,14.7-14.7v-156h-63.3l0-129.4c0-22.4,18.2-40.6,40.6-40.6l0,0
					c5,0,9.1,4.1,9.1,9.1l0,138.9h13.7v-139c0-12.3-10-22.3-22.3-22.3h0c-30.7,0-55.7,24.9-55.7,55.7v235
					C899.8,455.8,928.2,484.2,963.2,484.2z"/>
			</g>
		</g>
		<g>
			<path class="st3" d="M729.6,552.9h-8.5l-28.6,69.4h14.7l6.2-18.3h23.8l5.9,18.3H758L729.6,552.9z M717.5,592.2l7.6-20.4l7.9,20.4
				H717.5z"/>
			<polygon class="st3" points="764,552.9 778.4,552.9 805.6,600.2 805.6,552.9 820,552.9 820,622.3 805.6,622.3 778.4,575.2 
				778.4,622.3 764,622.3 			"/>
			<polygon class="st3" points="831.9,552.9 868.8,552.9 868.8,566.5 845,566.5 845,580.9 867.6,580.9 867.6,594.5 845,594.5 
				845,608.9 868.8,608.9 868.8,622.3 831.9,622.3 			"/>
			<polygon class="st3" points="926.3,552.9 939.3,552.9 939.3,580.9 962.4,580.9 962.4,552.9 976.2,552.9 976.2,622.3 962.4,622.3 
				962.4,594.5 939.3,594.5 939.3,622.3 926.3,622.3 			"/>
			<path class="st3" d="M692.5,586.5h-43.5v11.7h27c-3.8,6.8-11.1,11.3-19.4,11.3c-12.3,0-22.3-10-22.3-22.3
				c0-12.3,10-22.3,22.3-22.3c7.4,0,13.9,3.6,17.9,9.1h15.2c-5.4-12.4-17.9-21.2-32.6-21.2c-19.5,0-35.4,15.5-35.4,34.7
				s15.8,34.7,35.4,34.7c19.5,0,35.4-15.5,35.4-34.7C692.6,587.2,692.6,586.9,692.5,586.5z"/>
			<path class="st3" d="M910.9,585.9c-4.9-3.7-10.5-5.7-13.6-6.8c-1.7-0.6-3.2-1.2-3.2-1.2c-2.5-1-4.2-3.4-4.2-6.2
				c0-3.7,3-6.7,6.7-6.7c3.7,0,6.7,3,6.7,6.7H916c-0.5-10.5-9.1-18.8-19.7-18.8c-10.9,0-19.8,8.8-19.8,19.8c0,5.1,2,9.8,5.2,13.3
				c4,4.1,11.8,6.2,11.9,6.2c0.1,0,5.4,1.6,5.4,1.6c3.5,1.1,6,4.4,6,8.3c0,4.8-3.9,8.7-8.7,8.7c-4.8,0-8.7-3.9-8.7-8.7h-13.6
				c0.3,11.2,10.2,20.2,22.3,20.2c12.3,0,22.3-9.3,22.3-20.7C918.7,595.3,915.7,589.7,910.9,585.9z"/>
		</g>
	</g>
	<g>
		<path class="st3" d="M370.6,699.4h-34c-8.9-10.1-21.9-16.5-36.4-16.5H207c-14.5,0-27.5,6.4-36.4,16.5h-33.4
			c-42.4,0-76.9,34.4-76.9,76.9v501.4h387.2V776.3C447.4,733.8,413,699.4,370.6,699.4z"/>
		<g>
			<g>
				<path d="M330.7,750H177c-5.6,0-10.2-4.6-10.2-10.2v0c0-24.3,19.7-44,44-44h86c24.3,0,44,19.7,44,44v0
					C340.8,745.5,336.3,750,330.7,750z"/>
			</g>
			<g>
				<path d="M304.5,1165.8H203.2c-20.1,0-36.3-16.3-36.3-36.3V801.3c0-21.3,17.2-38.5,38.5-38.5h97c21.3,0,38.5,17.2,38.5,38.5
					v125.2c0,7.5-6.1,13.7-13.7,13.7h-16c-31.7,0-57.3,25.7-57.3,57.3v99c0,2.4,1.9,4.3,4.3,4.3h12c2.4,0,4.3-1.9,4.3-4.3V993.7
					c0-7.5,6-13.5,13.5-13.5h39.8c7.2,0,13.1,5.9,13.1,13.1v136.3C340.8,1149.6,324.6,1165.8,304.5,1165.8z"/>
			</g>
			<g>
				<path d="M90.5,1120.2L90.5,1120.2c-8.1,0-14.7-6.6-14.7-14.7v-156h63.3l0-129.4c0-22.4-18.2-40.6-40.6-40.6h0
					c-5,0-9.1,4.1-9.1,9.1l0,138.9H75.8v-139c0-12.3,10-22.3,22.3-22.3h0c30.7,0,55.7,24.9,55.7,55.7v235
					C153.8,1091.8,125.5,1120.2,90.5,1120.2z"/>
			</g>
			<g>
				<path d="M417.2,1120.2L417.2,1120.2c8.1,0,14.7-6.6,14.7-14.7v-156h-63.3l0-129.4c0-22.4,18.2-40.6,40.6-40.6h0
					c5,0,9.1,4.1,9.1,9.1l0,138.9h13.7v-139c0-12.3-10-22.3-22.3-22.3h0c-30.7,0-55.7,24.9-55.7,55.7v235
					C353.8,1091.8,382.2,1120.2,417.2,1120.2z"/>
			</g>
		</g>
		<g>
			<path d="M183.6,1188.9h-8.5l-28.6,69.4h14.7l6.2-18.3h23.8l5.9,18.3H212L183.6,1188.9z M171.5,1228.2l7.6-20.4l7.9,20.4H171.5z"
				/>
			<polygon points="218,1188.9 232.4,1188.9 259.6,1236.2 259.6,1188.9 274,1188.9 274,1258.3 259.6,1258.3 232.4,1211.2 
				232.4,1258.3 218,1258.3 			"/>
			<polygon points="285.9,1188.9 322.8,1188.9 322.8,1202.5 299,1202.5 299,1216.9 321.6,1216.9 321.6,1230.5 299,1230.5 
				299,1244.9 322.8,1244.9 322.8,1258.3 285.9,1258.3 			"/>
			<polygon points="380.3,1188.9 393.3,1188.9 393.3,1216.9 416.4,1216.9 416.4,1188.9 430.2,1188.9 430.2,1258.3 416.4,1258.3 
				416.4,1230.5 393.3,1230.5 393.3,1258.3 380.3,1258.3 			"/>
			<path d="M146.5,1222.5h-43.5v11.7h27c-3.8,6.8-11.1,11.3-19.4,11.3c-12.3,0-22.3-10-22.3-22.3s10-22.3,22.3-22.3
				c7.4,0,13.9,3.6,17.9,9.1h15.2c-5.4-12.4-17.9-21.2-32.6-21.2c-19.5,0-35.4,15.5-35.4,34.7c0,19.2,15.8,34.7,35.4,34.7
				c19.5,0,35.4-15.5,35.4-34.7C146.6,1223.2,146.6,1222.9,146.5,1222.5z"/>
			<path d="M364.9,1221.9c-4.9-3.7-10.5-5.7-13.6-6.8c-1.7-0.6-3.2-1.2-3.2-1.2c-2.5-1-4.2-3.4-4.2-6.2c0-3.7,3-6.7,6.7-6.7
				s6.7,3,6.7,6.7H370c-0.5-10.5-9.1-18.8-19.7-18.8c-10.9,0-19.8,8.8-19.8,19.8c0,5.1,2,9.8,5.2,13.3c4,4.1,11.8,6.2,11.9,6.2
				c0.1,0,5.4,1.6,5.4,1.6c3.5,1.1,6,4.4,6,8.3c0,4.8-3.9,8.7-8.7,8.7s-8.7-3.9-8.7-8.7h-13.6c0.3,11.2,10.2,20.2,22.3,20.2
				c12.3,0,22.3-9.3,22.3-20.7C372.7,1231.3,369.7,1225.7,364.9,1221.9z"/>
		</g>
	</g>
	<g>
		<g>
			<g>
				<path class="st1" d="M876.7,750H723c-5.6,0-10.2-4.6-10.2-10.2v0c0-24.3,19.7-44,44-44h86c24.3,0,44,19.7,44,44v0
					C886.8,745.5,882.3,750,876.7,750z"/>
			</g>
			<g>
				<path class="st2" d="M850.5,1165.8H749.2c-20.1,0-36.3-16.3-36.3-36.3V801.3c0-21.3,17.2-38.5,38.5-38.5h97
					c21.3,0,38.5,17.2,38.5,38.5v125.2c0,7.5-6.1,13.7-13.7,13.7h-16c-31.7,0-57.3,25.7-57.3,57.3v99c0,2.4,1.9,4.3,4.3,4.3h12
					c2.4,0,4.3-1.9,4.3-4.3V993.7c0-7.5,6-13.5,13.5-13.5h39.8c7.2,0,13.1,5.9,13.1,13.1v136.3
					C886.8,1149.6,870.6,1165.8,850.5,1165.8z"/>
			</g>
			<g>
				<path class="st2" d="M636.5,1120.2L636.5,1120.2c-8.1,0-14.7-6.6-14.7-14.7v-156h63.3l0-129.4c0-22.4-18.2-40.6-40.6-40.6h0
					c-5,0-9.1,4.1-9.1,9.1l0,138.9h-13.7v-139c0-12.3,10-22.3,22.3-22.3h0c30.7,0,55.7,24.9,55.7,55.7v235
					C699.8,1091.8,671.5,1120.2,636.5,1120.2z"/>
			</g>
			<g>
				<path class="st2" d="M963.2,1120.2L963.2,1120.2c8.1,0,14.7-6.6,14.7-14.7v-156h-63.3l0-129.4c0-22.4,18.2-40.6,40.6-40.6l0,0
					c5,0,9.1,4.1,9.1,9.1l0,138.9h13.7v-139c0-12.3-10-22.3-22.3-22.3h0c-30.7,0-55.7,24.9-55.7,55.7v235
					C899.8,1091.8,928.2,1120.2,963.2,1120.2z"/>
			</g>
		</g>
		<g>
			<path class="st3" d="M729.6,1188.9h-8.5l-28.6,69.4h14.7l6.2-18.3h23.8l5.9,18.3H758L729.6,1188.9z M717.5,1228.2l7.6-20.4
				l7.9,20.4H717.5z"/>
			<polygon class="st3" points="764,1188.9 778.4,1188.9 805.6,1236.2 805.6,1188.9 820,1188.9 820,1258.3 805.6,1258.3 
				778.4,1211.2 778.4,1258.3 764,1258.3 			"/>
			<polygon class="st3" points="831.9,1188.9 868.8,1188.9 868.8,1202.5 845,1202.5 845,1216.9 867.6,1216.9 867.6,1230.5 
				845,1230.5 845,1244.9 868.8,1244.9 868.8,1258.3 831.9,1258.3 			"/>
			<polygon class="st3" points="926.3,1188.9 939.3,1188.9 939.3,1216.9 962.4,1216.9 962.4,1188.9 976.2,1188.9 976.2,1258.3 
				962.4,1258.3 962.4,1230.5 939.3,1230.5 939.3,1258.3 926.3,1258.3 			"/>
			<path class="st3" d="M692.5,1222.5h-43.5v11.7h27c-3.8,6.8-11.1,11.3-19.4,11.3c-12.3,0-22.3-10-22.3-22.3s10-22.3,22.3-22.3
				c7.4,0,13.9,3.6,17.9,9.1h15.2c-5.4-12.4-17.9-21.2-32.6-21.2c-19.5,0-35.4,15.5-35.4,34.7c0,19.2,15.8,34.7,35.4,34.7
				c19.5,0,35.4-15.5,35.4-34.7C692.6,1223.2,692.6,1222.9,692.5,1222.5z"/>
			<path class="st3" d="M910.9,1221.9c-4.9-3.7-10.5-5.7-13.6-6.8c-1.7-0.6-3.2-1.2-3.2-1.2c-2.5-1-4.2-3.4-4.2-6.2
				c0-3.7,3-6.7,6.7-6.7c3.7,0,6.7,3,6.7,6.7H916c-0.5-10.5-9.1-18.8-19.7-18.8c-10.9,0-19.8,8.8-19.8,19.8c0,5.1,2,9.8,5.2,13.3
				c4,4.1,11.8,6.2,11.9,6.2c0.1,0,5.4,1.6,5.4,1.6c3.5,1.1,6,4.4,6,8.3c0,4.8-3.9,8.7-8.7,8.7c-4.8,0-8.7-3.9-8.7-8.7h-13.6
				c0.3,11.2,10.2,20.2,22.3,20.2c12.3,0,22.3-9.3,22.3-20.7C918.7,1231.3,915.7,1225.7,910.9,1221.9z"/>
		</g>
	</g>
	<g>
		<g>
			<g>
				<path class="st3" d="M322.8,1373.1H169.2c-5.6,0-10.2-4.6-10.2-10.2l0,0c0-24.3,19.7-44,44-44h86c24.3,0,44,19.7,44,44l0,0
					C333,1368.6,328.5,1373.1,322.8,1373.1z"/>
			</g>
			<g>
				<path class="st3" d="M296.7,1788.9H195.3c-20.1,0-36.3-16.3-36.3-36.3v-328.2c0-21.3,17.2-38.5,38.5-38.5h97
					c21.3,0,38.5,17.2,38.5,38.5v125.2c0,7.5-6.1,13.7-13.7,13.7h-16c-31.7,0-57.3,25.7-57.3,57.3v99c0,2.4,1.9,4.3,4.3,4.3h12
					c2.4,0,4.3-1.9,4.3-4.3v-102.8c0-7.5,6-13.5,13.5-13.5h39.8c7.2,0,13.1,5.9,13.1,13.1v136.3
					C333,1772.7,316.7,1788.9,296.7,1788.9z"/>
			</g>
			<g>
				<path class="st3" d="M82.7,1743.3L82.7,1743.3c-8.1,0-14.7-6.6-14.7-14.7v-156h63.3l0-129.4c0-22.4-18.2-40.6-40.6-40.6h0
					c-5,0-9.1,4.1-9.1,9.1l0,138.9H68v-139c0-12.3,10-22.3,22.3-22.3h0c30.7,0,55.7,24.9,55.7,55.7v235
					C146,1714.9,117.7,1743.3,82.7,1743.3z"/>
			</g>
			<g>
				<path class="st3" d="M409.3,1743.3L409.3,1743.3c8.1,0,14.7-6.6,14.7-14.7v-156h-63.3l0-129.4c0-22.4,18.2-40.6,40.6-40.6h0
					c5,0,9.1,4.1,9.1,9.1l0,138.9H424v-139c0-12.3-10-22.3-22.3-22.3h0c-30.7,0-55.7,24.9-55.7,55.7v235
					C346,1714.9,374.4,1743.3,409.3,1743.3z"/>
			</g>
		</g>
		<g>
			<path class="st3" d="M175.8,1812h-8.5l-28.6,69.4h14.7l6.2-18.3h23.8l5.9,18.3h14.7L175.8,1812z M163.7,1851.3l7.6-20.4l7.9,20.4
				H163.7z"/>
			<polygon class="st3" points="210.2,1812 224.6,1812 251.8,1859.3 251.8,1812 266.2,1812 266.2,1881.4 251.8,1881.4 224.6,1834.3 
				224.6,1881.4 210.2,1881.4 			"/>
			<polygon class="st3" points="278.1,1812 314.9,1812 314.9,1825.6 291.1,1825.6 291.1,1840 313.8,1840 313.8,1853.6 291.1,1853.6 
				291.1,1868 314.9,1868 314.9,1881.4 278.1,1881.4 			"/>
			<polygon class="st3" points="372.4,1812 385.5,1812 385.5,1840 408.5,1840 408.5,1812 422.3,1812 422.3,1881.4 408.5,1881.4 
				408.5,1853.6 385.5,1853.6 385.5,1881.4 372.4,1881.4 			"/>
			<path class="st3" d="M138.7,1845.7H95.2v11.7h27c-3.8,6.8-11.1,11.3-19.4,11.3c-12.3,0-22.3-10-22.3-22.3
				c0-12.3,10-22.3,22.3-22.3c7.4,0,13.9,3.6,17.9,9.1h15.2c-5.4-12.4-17.9-21.2-32.6-21.2c-19.5,0-35.4,15.5-35.4,34.7
				s15.8,34.7,35.4,34.7c19.5,0,35.4-15.5,35.4-34.7C138.7,1846.3,138.7,1846,138.7,1845.7z"/>
			<path class="st3" d="M357.1,1845c-4.9-3.7-10.5-5.7-13.6-6.8c-1.7-0.6-3.2-1.2-3.2-1.2c-2.5-1-4.2-3.4-4.2-6.2
				c0-3.7,3-6.7,6.7-6.7s6.7,3,6.7,6.7h12.6c-0.5-10.5-9.1-18.8-19.7-18.8c-10.9,0-19.8,8.8-19.8,19.8c0,5.1,2,9.8,5.2,13.3
				c4,4.1,11.8,6.2,11.9,6.2c0.1,0,5.4,1.6,5.4,1.6c3.5,1.1,6,4.4,6,8.3c0,4.8-3.9,8.7-8.7,8.7c-4.8,0-8.7-3.9-8.7-8.7h-13.6
				c0.3,11.2,10.2,20.2,22.3,20.2c12.3,0,22.3-9.3,22.3-20.7C364.9,1854.4,361.8,1848.8,357.1,1845z"/>
		</g>
	</g>
	<g>
		<g>
			<g>
				<path d="M868.8,1366.6H715.2c-5.6,0-10.2-4.6-10.2-10.2l0,0c0-24.3,19.7-44,44-44h86c24.3,0,44,19.7,44,44l0,0
					C879,1362,874.5,1366.6,868.8,1366.6z"/>
			</g>
			<g>
				<path d="M842.7,1782.4H741.3c-20.1,0-36.3-16.3-36.3-36.3v-328.2c0-21.3,17.2-38.5,38.5-38.5h97c21.3,0,38.5,17.2,38.5,38.5
					v125.2c0,7.5-6.1,13.7-13.7,13.7h-16c-31.7,0-57.3,25.7-57.3,57.3v99c0,2.4,1.9,4.3,4.3,4.3h12c2.4,0,4.3-1.9,4.3-4.3v-102.8
					c0-7.5,6-13.5,13.5-13.5h39.8c7.2,0,13.1,5.9,13.1,13.1v136.3C879,1766.1,862.7,1782.4,842.7,1782.4z"/>
			</g>
			<g>
				<path d="M628.7,1736.7L628.7,1736.7c-8.1,0-14.7-6.6-14.7-14.7v-156h63.3l0-129.4c0-22.4-18.2-40.6-40.6-40.6h0
					c-5,0-9.1,4.1-9.1,9.1l0,138.9H614v-139c0-12.3,10-22.3,22.3-22.3h0c30.7,0,55.7,24.9,55.7,55.7v235
					C692,1708.4,663.7,1736.7,628.7,1736.7z"/>
			</g>
			<g>
				<path d="M955.3,1736.7L955.3,1736.7c8.1,0,14.7-6.6,14.7-14.7v-156h-63.3l0-129.4c0-22.4,18.2-40.6,40.6-40.6h0
					c5,0,9.1,4.1,9.1,9.1l0,138.9H970v-139c0-12.3-10-22.3-22.3-22.3h0c-30.7,0-55.7,24.9-55.7,55.7v235
					C892,1708.4,920.4,1736.7,955.3,1736.7z"/>
			</g>
		</g>
		<g>
			<path d="M721.8,1805.4h-8.5l-28.6,69.4h14.7l6.2-18.3h23.8l5.9,18.3h14.7L721.8,1805.4z M709.7,1844.8l7.6-20.4l7.9,20.4H709.7z"
				/>
			<polygon points="756.2,1805.4 770.6,1805.4 797.8,1852.7 797.8,1805.4 812.2,1805.4 812.2,1874.8 797.8,1874.8 770.6,1827.8 
				770.6,1874.8 756.2,1874.8 			"/>
			<polygon points="824.1,1805.4 860.9,1805.4 860.9,1819.1 837.1,1819.1 837.1,1833.4 859.8,1833.4 859.8,1847 837.1,1847 
				837.1,1861.4 860.9,1861.4 860.9,1874.8 824.1,1874.8 			"/>
			<polygon points="918.4,1805.4 931.5,1805.4 931.5,1833.4 954.5,1833.4 954.5,1805.4 968.3,1805.4 968.3,1874.8 954.5,1874.8 
				954.5,1847 931.5,1847 931.5,1874.8 918.4,1874.8 			"/>
			<path d="M684.7,1839.1h-43.5v11.7h27c-3.8,6.8-11.1,11.3-19.4,11.3c-12.3,0-22.3-10-22.3-22.3s10-22.3,22.3-22.3
				c7.4,0,13.9,3.6,17.9,9.1h15.2c-5.4-12.4-17.9-21.2-32.6-21.2c-19.5,0-35.4,15.5-35.4,34.7s15.8,34.7,35.4,34.7
				c19.5,0,35.4-15.5,35.4-34.7C684.7,1839.8,684.7,1839.4,684.7,1839.1z"/>
			<path d="M903.1,1838.4c-4.9-3.7-10.5-5.7-13.6-6.8c-1.7-0.6-3.2-1.2-3.2-1.2c-2.5-1-4.2-3.4-4.2-6.2c0-3.7,3-6.7,6.7-6.7
				s6.7,3,6.7,6.7h12.6c-0.5-10.5-9.1-18.8-19.7-18.8c-10.9,0-19.8,8.8-19.8,19.8c0,5.1,2,9.8,5.2,13.3c4,4.1,11.8,6.2,11.9,6.2
				c0.1,0,5.4,1.6,5.4,1.6c3.5,1.1,6,4.4,6,8.3c0,4.8-3.9,8.7-8.7,8.7c-4.8,0-8.7-3.9-8.7-8.7h-13.6c0.3,11.2,10.2,20.2,22.3,20.2
				c12.3,0,22.3-9.3,22.3-20.7C910.9,1847.9,907.8,1842.2,903.1,1838.4z"/>
		</g>
	</g>
	<g>
		<g>
			<path class="st3" d="M1419.7,101.1H1266c-5.6,0-10.2-4.6-10.2-10.2v0c0-24.3,19.7-44,44-44h86c24.3,0,44,19.7,44,44v0
				C1429.8,96.6,1425.3,101.1,1419.7,101.1z"/>
		</g>
		<g>
			<path class="st3" d="M1393.5,516.9h-101.3c-20.1,0-36.3-16.3-36.3-36.3V152.4c0-21.3,17.2-38.5,38.5-38.5h97
				c21.3,0,38.5,17.2,38.5,38.5v125.2c0,7.5-6.1,13.7-13.7,13.7h-16c-31.7,0-57.3,25.7-57.3,57.3v99c0,2.4,1.9,4.3,4.3,4.3h12
				c2.4,0,4.3-1.9,4.3-4.3V344.8c0-7.5,6-13.5,13.5-13.5h39.8c7.2,0,13.1,5.9,13.1,13.1v136.3
				C1429.8,500.7,1413.6,516.9,1393.5,516.9z"/>
		</g>
		<g>
			<path class="st3" d="M1179.5,471.3L1179.5,471.3c-8.1,0-14.7-6.6-14.7-14.7v-156h63.3l0-129.4c0-22.4-18.2-40.6-40.6-40.6h0
				c-5,0-9.1,4.1-9.1,9.1l0,138.9h-13.7v-139c0-12.3,10-22.3,22.3-22.3h0c30.7,0,55.7,24.9,55.7,55.7v235
				C1242.8,442.9,1214.5,471.3,1179.5,471.3z"/>
		</g>
		<g>
			<path class="st3" d="M1506.2,471.3L1506.2,471.3c8.1,0,14.7-6.6,14.7-14.7v-156h-63.3l0-129.4c0-22.4,18.2-40.6,40.6-40.6h0
				c5,0,9.1,4.1,9.1,9.1l0,138.9h13.7v-139c0-12.3-10-22.3-22.3-22.3h0c-30.7,0-55.7,24.9-55.7,55.7v235
				C1442.8,442.9,1471.2,471.3,1506.2,471.3z"/>
		</g>
	</g>
	<g>
		<g>
			<path class="st1" d="M1948.7,101.1H1795c-5.6,0-10.2-4.6-10.2-10.2v0c0-24.3,19.7-44,44-44h86c24.3,0,44,19.7,44,44v0
				C1958.8,96.6,1954.3,101.1,1948.7,101.1z"/>
		</g>
		<g>
			<path class="st2" d="M1922.5,516.9h-101.3c-20.1,0-36.3-16.3-36.3-36.3V152.4c0-21.3,17.2-38.5,38.5-38.5h97
				c21.3,0,38.5,17.2,38.5,38.5v125.2c0,7.5-6.1,13.7-13.7,13.7h-16c-31.7,0-57.3,25.7-57.3,57.3v99c0,2.4,1.9,4.3,4.3,4.3h12
				c2.4,0,4.3-1.9,4.3-4.3V344.8c0-7.5,6-13.5,13.5-13.5h39.8c7.2,0,13.1,5.9,13.1,13.1v136.3
				C1958.8,500.7,1942.6,516.9,1922.5,516.9z"/>
		</g>
		<g>
			<path class="st2" d="M1708.5,471.3L1708.5,471.3c-8.1,0-14.7-6.6-14.7-14.7v-156h63.3l0-129.4c0-22.4-18.2-40.6-40.6-40.6h0
				c-5,0-9.1,4.1-9.1,9.1l0,138.9h-13.7v-139c0-12.3,10-22.3,22.3-22.3h0c30.7,0,55.7,24.9,55.7,55.7v235
				C1771.8,442.9,1743.5,471.3,1708.5,471.3z"/>
		</g>
		<g>
			<path class="st2" d="M2035.2,471.3L2035.2,471.3c8.1,0,14.7-6.6,14.7-14.7v-156h-63.3l0-129.4c0-22.4,18.2-40.6,40.6-40.6h0
				c5,0,9.1,4.1,9.1,9.1l0,138.9h13.7v-139c0-12.3-10-22.3-22.3-22.3h0c-30.7,0-55.7,24.9-55.7,55.7v235
				C1971.8,442.9,2000.2,471.3,2035.2,471.3z"/>
		</g>
	</g>
	<g>
		<g>
			<path d="M2477.7,95.8H2324c-5.6,0-10.2-4.6-10.2-10.2v0c0-24.3,19.7-44,44-44h86c24.3,0,44,19.7,44,44v0
				C2487.8,91.2,2483.3,95.8,2477.7,95.8z"/>
		</g>
		<g>
			<path d="M2451.5,511.6h-101.3c-20.1,0-36.3-16.3-36.3-36.3V147.1c0-21.3,17.2-38.5,38.5-38.5h97c21.3,0,38.5,17.2,38.5,38.5
				v125.2c0,7.5-6.1,13.7-13.7,13.7h-16c-31.7,0-57.3,25.7-57.3,57.3v99c0,2.4,1.9,4.3,4.3,4.3h12c2.4,0,4.3-1.9,4.3-4.3V339.4
				c0-7.5,6-13.5,13.5-13.5h39.8c7.2,0,13.1,5.9,13.1,13.1v136.3C2487.8,495.3,2471.6,511.6,2451.5,511.6z"/>
		</g>
		<g>
			<path d="M2237.5,465.9L2237.5,465.9c-8.1,0-14.7-6.6-14.7-14.7v-156h63.3l0-129.4c0-22.4-18.2-40.6-40.6-40.6l0,0
				c-5,0-9.1,4.1-9.1,9.1l0,138.9h-13.7v-139c0-12.3,10-22.3,22.3-22.3l0,0c30.7,0,55.7,24.9,55.7,55.7v235
				C2300.8,437.6,2272.5,465.9,2237.5,465.9z"/>
		</g>
		<g>
			<path d="M2564.2,465.9L2564.2,465.9c8.1,0,14.7-6.6,14.7-14.7v-156h-63.3l0-129.4c0-22.4,18.2-40.6,40.6-40.6l0,0
				c5,0,9.1,4.1,9.1,9.1l0,138.9h13.7v-139c0-12.3-10-22.3-22.3-22.3l0,0c-30.7,0-55.7,24.9-55.7,55.7v235
				C2500.8,437.6,2529.2,465.9,2564.2,465.9z"/>
		</g>
	</g>
	<g>
		<path class="st3" d="M1273.4,686.7h-8.5l-28.6,69.4h14.7l6.2-18.3h23.8l5.9,18.3h14.7L1273.4,686.7z M1261.3,726l7.6-20.4
			l7.9,20.4H1261.3z"/>
		<polygon class="st3" points="1307.9,686.7 1322.2,686.7 1349.5,733.9 1349.5,686.7 1363.8,686.7 1363.8,756.1 1349.5,756.1 
			1322.2,709 1322.2,756.1 1307.9,756.1 		"/>
		<polygon class="st3" points="1375.7,686.7 1412.6,686.7 1412.6,700.3 1388.8,700.3 1388.8,714.7 1411.5,714.7 1411.5,728.3 
			1388.8,728.3 1388.8,742.6 1412.6,742.6 1412.6,756.1 1375.7,756.1 		"/>
		<polygon class="st3" points="1470.1,686.7 1483.1,686.7 1483.1,714.7 1506.2,714.7 1506.2,686.7 1520,686.7 1520,756.1 
			1506.2,756.1 1506.2,728.3 1483.1,728.3 1483.1,756.1 1470.1,756.1 		"/>
		<path class="st3" d="M1236.4,720.3h-43.5V732h27c-3.8,6.8-11.1,11.3-19.4,11.3c-12.3,0-22.3-10-22.3-22.3
			c0-12.3,10-22.3,22.3-22.3c7.4,0,13.9,3.6,17.9,9.1h15.2c-5.4-12.4-17.9-21.2-32.6-21.2c-19.5,0-35.4,15.5-35.4,34.7
			c0,19.2,15.8,34.7,35.4,34.7c19.5,0,35.4-15.5,35.4-34.7C1236.4,721,1236.4,720.7,1236.4,720.3z"/>
		<path class="st3" d="M1454.7,719.7c-4.9-3.7-10.5-5.7-13.6-6.8c-1.7-0.6-3.2-1.2-3.2-1.2c-2.5-1-4.2-3.4-4.2-6.2
			c0-3.7,3-6.7,6.7-6.7s6.7,3,6.7,6.7h12.6c-0.5-10.5-9.1-18.8-19.7-18.8c-10.9,0-19.8,8.8-19.8,19.8c0,5.1,2,9.8,5.2,13.3
			c4,4.1,11.8,6.2,11.9,6.2c0.1,0,5.4,1.6,5.4,1.6c3.5,1.1,6,4.4,6,8.3c0,4.8-3.9,8.7-8.7,8.7c-4.8,0-8.7-3.9-8.7-8.7h-13.6
			c0.3,11.2,10.2,20.2,22.3,20.2c12.3,0,22.3-9.3,22.3-20.7C1462.5,729.1,1459.5,723.5,1454.7,719.7z"/>
	</g>
	<g>
		<path d="M1273.4,844.9h-8.5l-28.6,69.4h14.7l6.2-18.3h23.8l5.9,18.3h14.7L1273.4,844.9z M1261.3,884.2l7.6-20.4l7.9,20.4H1261.3z"
			/>
		<polygon points="1307.9,844.9 1322.2,844.9 1349.5,892.2 1349.5,844.9 1363.8,844.9 1363.8,914.3 1349.5,914.3 1322.2,867.2 
			1322.2,914.3 1307.9,914.3 		"/>
		<polygon points="1375.7,844.9 1412.6,844.9 1412.6,858.5 1388.8,858.5 1388.8,872.9 1411.5,872.9 1411.5,886.5 1388.8,886.5 
			1388.8,900.9 1412.6,900.9 1412.6,914.3 1375.7,914.3 		"/>
		<polygon points="1470.1,844.9 1483.1,844.9 1483.1,872.9 1506.2,872.9 1506.2,844.9 1520,844.9 1520,914.3 1506.2,914.3 
			1506.2,886.5 1483.1,886.5 1483.1,914.3 1470.1,914.3 		"/>
		<path d="M1236.4,878.6h-43.5v11.7h27c-3.8,6.8-11.1,11.3-19.4,11.3c-12.3,0-22.3-10-22.3-22.3c0-12.3,10-22.3,22.3-22.3
			c7.4,0,13.9,3.6,17.9,9.1h15.2c-5.4-12.4-17.9-21.2-32.6-21.2c-19.5,0-35.4,15.5-35.4,34.7c0,19.2,15.8,34.7,35.4,34.7
			c19.5,0,35.4-15.5,35.4-34.7C1236.4,879.2,1236.4,878.9,1236.4,878.6z"/>
		<path d="M1454.7,877.9c-4.9-3.7-10.5-5.7-13.6-6.8c-1.7-0.6-3.2-1.2-3.2-1.2c-2.5-1-4.2-3.4-4.2-6.2c0-3.7,3-6.7,6.7-6.7
			s6.7,3,6.7,6.7h12.6c-0.5-10.5-9.1-18.8-19.7-18.8c-10.9,0-19.8,8.8-19.8,19.8c0,5.1,2,9.8,5.2,13.3c4,4.1,11.8,6.2,11.9,6.2
			c0.1,0,5.4,1.6,5.4,1.6c3.5,1.1,6,4.4,6,8.3c0,4.8-3.9,8.7-8.7,8.7c-4.8,0-8.7-3.9-8.7-8.7h-13.6c0.3,11.2,10.2,20.2,22.3,20.2
			c12.3,0,22.3-9.3,22.3-20.7C1462.5,887.3,1459.5,881.7,1454.7,877.9z"/>
	</g>
	<path d="M1459.6,1031.5h-34c-8.9-10.1-21.9-16.5-36.4-16.5H1296c-14.5,0-27.5,6.4-36.4,16.5h-33.4c-42.4,0-76.9,34.4-76.9,76.9
		v501.4h387.2v-501.4C1536.4,1065.9,1502,1031.5,1459.6,1031.5z"/>
	<path class="st3" d="M1988.6,1031.5h-34c-8.9-10.1-21.9-16.5-36.4-16.5H1825c-14.5,0-27.5,6.4-36.4,16.5h-33.4
		c-42.4,0-76.9,34.4-76.9,76.9v501.4h387.2v-501.4C2065.4,1065.9,2031,1031.5,1988.6,1031.5z"/>
</g>
</svg>
