<svg xmlns="http://www.w3.org/2000/svg" viewBox="0 0 354.33 69.4"><title>Ativo 11</title><g id="Camada_2" data-name="Camada 2"><g id="Camada_3" data-name="Camada 3"><path d="M107.77,0H99.27L70.71,69.4H85.46L91.7,51.05h23.82l5.87,18.34h14.75ZM95.67,39.33l7.57-20.42,7.94,20.42Z"/><polygon points="142.19 0 156.56 0 183.78 47.27 183.78 0 198.15 0 198.15 69.39 183.78 69.39 156.56 22.31 156.56 69.39 142.19 69.39 142.19 0"/><polygon points="210.07 0 246.94 0 246.94 13.61 223.11 13.61 223.11 27.98 245.8 27.98 245.8 41.6 223.11 41.6 223.11 55.97 246.94 55.97 246.94 69.39 210.07 69.39 210.07 0"/><polygon points="304.42 0 317.46 0 317.46 27.98 340.53 27.98 340.53 0 354.33 0 354.33 69.39 340.53 69.39 340.53 41.6 317.46 41.6 317.46 69.39 304.42 69.39 304.42 0"/><path d="M70.7,33.66H27.23V45.38h27a22.31,22.31,0,1,1-1.47-24.2h15.2A35.38,35.38,0,0,0,35.36,0C15.83,0,0,15.53,0,34.69S15.83,69.4,35.36,69.4s35.35-15.54,35.35-34.7C70.71,34.35,70.71,34,70.7,33.66Z"/><path d="M289.07,33a49.12,49.12,0,0,0-13.55-6.8c-1.75-.61-3.18-1.15-3.18-1.15a6.71,6.71,0,1,1,9.2-6.24h12.64A19.76,19.76,0,1,0,259.9,33.09c4,4.09,11.75,6.18,11.9,6.23l5.41,1.57a8.7,8.7,0,1,1-11.37,8.27h-13.6c.26,11.22,10.15,20.24,22.3,20.24,12.32,0,22.32-9.27,22.32-20.7A20.07,20.07,0,0,0,289.07,33Z"/></g></g></svg>